# Blender v2.93.1 OBJ File: ''
# www.blender.org
mtllib 01.mtl
o Цилиндр
v 0.000000 -0.050000 -0.200000
v 0.000000 0.050000 -0.200000
v 0.012558 -0.050000 -0.199605
v 0.012558 0.050000 -0.199605
v 0.025067 -0.050000 -0.198423
v 0.025067 0.050000 -0.198423
v 0.037476 -0.050000 -0.196457
v 0.037476 0.050000 -0.196457
v 0.049738 -0.050000 -0.193717
v 0.049738 0.050000 -0.193717
v 0.061803 -0.050000 -0.190211
v 0.061803 0.050000 -0.190211
v 0.073625 -0.050000 -0.185955
v 0.073625 0.050000 -0.185955
v 0.085156 -0.050000 -0.180965
v 0.085156 0.050000 -0.180965
v 0.096351 -0.050000 -0.175261
v 0.096351 0.050000 -0.175261
v 0.107165 -0.050000 -0.168866
v 0.107165 0.050000 -0.168866
v 0.117557 -0.050000 -0.161803
v 0.117557 0.050000 -0.161803
v 0.127485 -0.050000 -0.154103
v 0.127485 0.050000 -0.154103
v 0.136909 -0.050000 -0.145794
v 0.136909 0.050000 -0.145794
v 0.145794 -0.050000 -0.136909
v 0.145794 0.050000 -0.136909
v 0.154103 -0.050000 -0.127485
v 0.154103 0.050000 -0.127485
v 0.161803 -0.050000 -0.117557
v 0.161803 0.050000 -0.117557
v 0.168866 -0.050000 -0.107165
v 0.168866 0.050000 -0.107165
v 0.175261 -0.050000 -0.096351
v 0.175261 0.050000 -0.096351
v 0.180965 -0.050000 -0.085156
v 0.180965 0.050000 -0.085156
v 0.185955 -0.050000 -0.073625
v 0.185955 0.050000 -0.073625
v 0.190211 -0.050000 -0.061803
v 0.190211 0.050000 -0.061803
v 0.193717 -0.050000 -0.049738
v 0.193717 0.050000 -0.049738
v 0.196457 -0.050000 -0.037476
v 0.196457 0.050000 -0.037476
v 0.198423 -0.050000 -0.025067
v 0.198423 0.050000 -0.025067
v 0.199605 -0.050000 -0.012558
v 0.199605 0.050000 -0.012558
v 0.200000 -0.050000 0.000000
v 0.200000 0.050000 0.000000
v 0.199605 -0.050000 0.012558
v 0.199605 0.050000 0.012558
v 0.198423 -0.050000 0.025067
v 0.198423 0.050000 0.025067
v 0.196457 -0.050000 0.037476
v 0.196457 0.050000 0.037476
v 0.193717 -0.050000 0.049738
v 0.193717 0.050000 0.049738
v 0.190211 -0.050000 0.061803
v 0.190211 0.050000 0.061803
v 0.185955 -0.050000 0.073625
v 0.185955 0.050000 0.073625
v 0.180965 -0.050000 0.085156
v 0.180965 0.050000 0.085156
v 0.175261 -0.050000 0.096351
v 0.175261 0.050000 0.096351
v 0.168866 -0.050000 0.107165
v 0.168866 0.050000 0.107165
v 0.161803 -0.050000 0.117557
v 0.161803 0.050000 0.117557
v 0.154103 -0.050000 0.127485
v 0.154103 0.050000 0.127485
v 0.145794 -0.050000 0.136909
v 0.145794 0.050000 0.136909
v 0.136909 -0.050000 0.145794
v 0.136909 0.050000 0.145794
v 0.127485 -0.050000 0.154103
v 0.127485 0.050000 0.154103
v 0.117557 -0.050000 0.161803
v 0.117557 0.050000 0.161803
v 0.107165 -0.050000 0.168866
v 0.107165 0.050000 0.168866
v 0.096351 -0.050000 0.175261
v 0.096351 0.050000 0.175261
v 0.085156 -0.050000 0.180965
v 0.085156 0.050000 0.180965
v 0.073625 -0.050000 0.185955
v 0.073625 0.050000 0.185955
v 0.061803 -0.050000 0.190211
v 0.061803 0.050000 0.190211
v 0.049738 -0.050000 0.193717
v 0.049738 0.050000 0.193717
v 0.037476 -0.050000 0.196457
v 0.037476 0.050000 0.196457
v 0.025067 -0.050000 0.198423
v 0.025067 0.050000 0.198423
v 0.012558 -0.050000 0.199605
v 0.012558 0.050000 0.199605
v -0.000000 -0.050000 0.200000
v -0.000000 0.050000 0.200000
v -0.012558 -0.050000 0.199605
v -0.012558 0.050000 0.199605
v -0.025067 -0.050000 0.198423
v -0.025067 0.050000 0.198423
v -0.037476 -0.050000 0.196457
v -0.037476 0.050000 0.196457
v -0.049738 -0.050000 0.193717
v -0.049738 0.050000 0.193717
v -0.061803 -0.050000 0.190211
v -0.061803 0.050000 0.190211
v -0.073625 -0.050000 0.185955
v -0.073625 0.050000 0.185955
v -0.085156 -0.050000 0.180965
v -0.085156 0.050000 0.180965
v -0.096351 -0.050000 0.175261
v -0.096351 0.050000 0.175261
v -0.107165 -0.050000 0.168866
v -0.107165 0.050000 0.168866
v -0.117557 -0.050000 0.161803
v -0.117557 0.050000 0.161803
v -0.127485 -0.050000 0.154103
v -0.127485 0.050000 0.154103
v -0.136909 -0.050000 0.145794
v -0.136909 0.050000 0.145794
v -0.145794 -0.050000 0.136909
v -0.145794 0.050000 0.136909
v -0.154103 -0.050000 0.127485
v -0.154103 0.050000 0.127485
v -0.161803 -0.050000 0.117557
v -0.161803 0.050000 0.117557
v -0.168866 -0.050000 0.107165
v -0.168866 0.050000 0.107165
v -0.175261 -0.050000 0.096351
v -0.175261 0.050000 0.096351
v -0.180965 -0.050000 0.085156
v -0.180965 0.050000 0.085156
v -0.185955 -0.050000 0.073625
v -0.185955 0.050000 0.073625
v -0.190211 -0.050000 0.061803
v -0.190211 0.050000 0.061803
v -0.193717 -0.050000 0.049738
v -0.193717 0.050000 0.049738
v -0.196457 -0.050000 0.037476
v -0.196457 0.050000 0.037476
v -0.198423 -0.050000 0.025067
v -0.198423 0.050000 0.025067
v -0.199605 -0.050000 0.012558
v -0.199605 0.050000 0.012558
v -0.200000 -0.050000 -0.000000
v -0.200000 0.050000 -0.000000
v -0.199605 -0.050000 -0.012558
v -0.199605 0.050000 -0.012558
v -0.198423 -0.050000 -0.025067
v -0.198423 0.050000 -0.025067
v -0.196457 -0.050000 -0.037476
v -0.196457 0.050000 -0.037476
v -0.193717 -0.050000 -0.049738
v -0.193717 0.050000 -0.049738
v -0.190211 -0.050000 -0.061803
v -0.190211 0.050000 -0.061803
v -0.185955 -0.050000 -0.073625
v -0.185955 0.050000 -0.073625
v -0.180965 -0.050000 -0.085156
v -0.180965 0.050000 -0.085156
v -0.175261 -0.050000 -0.096351
v -0.175261 0.050000 -0.096351
v -0.168866 -0.050000 -0.107165
v -0.168866 0.050000 -0.107165
v -0.161803 -0.050000 -0.117557
v -0.161803 0.050000 -0.117557
v -0.154103 -0.050000 -0.127485
v -0.154103 0.050000 -0.127485
v -0.145794 -0.050000 -0.136909
v -0.145794 0.050000 -0.136909
v -0.136909 -0.050000 -0.145794
v -0.136909 0.050000 -0.145794
v -0.127485 -0.050000 -0.154103
v -0.127485 0.050000 -0.154103
v -0.117557 -0.050000 -0.161803
v -0.117557 0.050000 -0.161803
v -0.107165 -0.050000 -0.168866
v -0.107165 0.050000 -0.168866
v -0.096351 -0.050000 -0.175261
v -0.096351 0.050000 -0.175261
v -0.085156 -0.050000 -0.180965
v -0.085156 0.050000 -0.180965
v -0.073625 -0.050000 -0.185955
v -0.073625 0.050000 -0.185955
v -0.061803 -0.050000 -0.190211
v -0.061803 0.050000 -0.190211
v -0.049738 -0.050000 -0.193717
v -0.049738 0.050000 -0.193717
v -0.037476 -0.050000 -0.196457
v -0.037476 0.050000 -0.196457
v -0.025067 -0.050000 -0.198423
v -0.025067 0.050000 -0.198423
v -0.012558 -0.050000 -0.199605
v -0.012558 0.050000 -0.199605
vt 1.000000 0.000000
vt 1.000000 1.000000
vt 0.990000 1.000000
vt 0.990000 0.000000
vt 0.980000 1.000000
vt 0.980000 0.000000
vt 0.970000 1.000000
vt 0.970000 0.000000
vt 0.960000 1.000000
vt 0.960000 0.000000
vt 0.950000 1.000000
vt 0.950000 0.000000
vt 0.940000 1.000000
vt 0.940000 0.000000
vt 0.930000 1.000000
vt 0.930000 0.000000
vt 0.920000 1.000000
vt 0.920000 0.000000
vt 0.910000 1.000000
vt 0.910000 0.000000
vt 0.900000 1.000000
vt 0.900000 0.000000
vt 0.890000 1.000000
vt 0.890000 0.000000
vt 0.880000 1.000000
vt 0.880000 0.000000
vt 0.870000 1.000000
vt 0.870000 0.000000
vt 0.860000 1.000000
vt 0.860000 0.000000
vt 0.850000 1.000000
vt 0.850000 0.000000
vt 0.840000 1.000000
vt 0.840000 0.000000
vt 0.830000 1.000000
vt 0.830000 0.000000
vt 0.820000 1.000000
vt 0.820000 0.000000
vt 0.810000 1.000000
vt 0.810000 0.000000
vt 0.800000 1.000000
vt 0.800000 0.000000
vt 0.790000 1.000000
vt 0.790000 0.000000
vt 0.780000 1.000000
vt 0.780000 0.000000
vt 0.770000 1.000000
vt 0.770000 0.000000
vt 0.760000 1.000000
vt 0.760000 0.000000
vt 0.750000 1.000000
vt 0.750000 0.000000
vt 0.740000 1.000000
vt 0.740000 0.000000
vt 0.730000 1.000000
vt 0.730000 0.000000
vt 0.720000 1.000000
vt 0.720000 0.000000
vt 0.710000 1.000000
vt 0.710000 0.000000
vt 0.700000 1.000000
vt 0.700000 0.000000
vt 0.690000 1.000000
vt 0.690000 0.000000
vt 0.680000 1.000000
vt 0.680000 0.000000
vt 0.670000 1.000000
vt 0.670000 0.000000
vt 0.660000 1.000000
vt 0.660000 0.000000
vt 0.650000 1.000000
vt 0.650000 0.000000
vt 0.640000 1.000000
vt 0.640000 0.000000
vt 0.630000 1.000000
vt 0.630000 0.000000
vt 0.620000 1.000000
vt 0.620000 0.000000
vt 0.610000 1.000000
vt 0.610000 0.000000
vt 0.600000 1.000000
vt 0.600000 0.000000
vt 0.590000 1.000000
vt 0.590000 0.000000
vt 0.580000 1.000000
vt 0.580000 0.000000
vt 0.570000 1.000000
vt 0.570000 0.000000
vt 0.560000 1.000000
vt 0.560000 0.000000
vt 0.550000 1.000000
vt 0.550000 0.000000
vt 0.540000 1.000000
vt 0.540000 0.000000
vt 0.530000 1.000000
vt 0.530000 0.000000
vt 0.520000 1.000000
vt 0.520000 0.000000
vt 0.510000 1.000000
vt 0.510000 0.000000
vt 0.500000 1.000000
vt 0.500000 0.000000
vt 0.490000 1.000000
vt 0.490000 0.000000
vt 0.480000 1.000000
vt 0.480000 0.000000
vt 0.470001 1.000000
vt 0.470001 0.000000
vt 0.460001 1.000000
vt 0.460001 0.000000
vt 0.450001 1.000000
vt 0.450001 0.000000
vt 0.440001 1.000000
vt 0.440001 0.000000
vt 0.430001 1.000000
vt 0.430001 0.000000
vt 0.420001 1.000000
vt 0.420001 0.000000
vt 0.410001 1.000000
vt 0.410001 0.000000
vt 0.400001 1.000000
vt 0.400001 0.000000
vt 0.390001 1.000000
vt 0.390001 0.000000
vt 0.380001 1.000000
vt 0.380001 0.000000
vt 0.370001 1.000000
vt 0.370001 0.000000
vt 0.360001 1.000000
vt 0.360001 0.000000
vt 0.350001 1.000000
vt 0.350001 0.000000
vt 0.340001 1.000000
vt 0.340001 0.000000
vt 0.330001 1.000000
vt 0.330001 0.000000
vt 0.320001 1.000000
vt 0.320001 0.000000
vt 0.310001 1.000000
vt 0.310001 0.000000
vt 0.300001 1.000000
vt 0.300001 0.000000
vt 0.290001 1.000000
vt 0.290001 0.000000
vt 0.280001 1.000000
vt 0.280001 0.000000
vt 0.270001 1.000000
vt 0.270001 0.000000
vt 0.260001 1.000000
vt 0.260001 0.000000
vt 0.250001 1.000000
vt 0.250001 0.000000
vt 0.240001 1.000000
vt 0.240001 0.000000
vt 0.230001 1.000000
vt 0.230001 0.000000
vt 0.220001 1.000000
vt 0.220001 0.000000
vt 0.210001 1.000000
vt 0.210001 0.000000
vt 0.200001 1.000000
vt 0.200001 0.000000
vt 0.190001 1.000000
vt 0.190001 0.000000
vt 0.180001 1.000000
vt 0.180001 0.000000
vt 0.170001 1.000000
vt 0.170001 0.000000
vt 0.160001 1.000000
vt 0.160001 0.000000
vt 0.150001 1.000000
vt 0.150001 0.000000
vt 0.140001 1.000000
vt 0.140001 0.000000
vt 0.130001 1.000000
vt 0.130001 0.000000
vt 0.120001 1.000000
vt 0.120001 0.000000
vt 0.110001 1.000000
vt 0.110001 0.000000
vt 0.100001 1.000000
vt 0.100001 0.000000
vt 0.090001 1.000000
vt 0.090001 0.000000
vt 0.080001 1.000000
vt 0.080001 0.000000
vt 0.070001 1.000000
vt 0.070001 0.000000
vt 0.060001 1.000000
vt 0.060001 0.000000
vt 0.050001 1.000000
vt 0.050001 0.000000
vt 0.040001 1.000000
vt 0.040001 0.000000
vt 0.030001 1.000000
vt 0.030001 0.000000
vt 0.020001 1.000000
vt 0.020001 0.000000
vt 0.010001 1.000000
vt 0.010001 0.000000
vt 0.000001 1.000000
vt 0.000001 0.000000
vn 0.0314 0.0000 -0.9995
vn 0.0941 0.0000 -0.9956
vn 0.1564 0.0000 -0.9877
vn 0.2181 0.0000 -0.9759
vn 0.2790 0.0000 -0.9603
vn 0.3387 0.0000 -0.9409
vn 0.3971 0.0000 -0.9178
vn 0.4540 0.0000 -0.8910
vn 0.5090 0.0000 -0.8607
vn 0.5621 0.0000 -0.8271
vn 0.6129 0.0000 -0.7902
vn 0.6613 0.0000 -0.7501
vn 0.7071 0.0000 -0.7071
vn 0.7501 0.0000 -0.6613
vn 0.7902 0.0000 -0.6129
vn 0.8271 0.0000 -0.5621
vn 0.8607 0.0000 -0.5090
vn 0.8910 0.0000 -0.4540
vn 0.9178 0.0000 -0.3971
vn 0.9409 0.0000 -0.3387
vn 0.9603 0.0000 -0.2790
vn 0.9759 0.0000 -0.2181
vn 0.9877 0.0000 -0.1564
vn 0.9956 0.0000 -0.0941
vn 0.9995 0.0000 -0.0314
vn 0.9995 0.0000 0.0314
vn 0.9956 0.0000 0.0941
vn 0.9877 0.0000 0.1564
vn 0.9759 0.0000 0.2181
vn 0.9603 0.0000 0.2790
vn 0.9409 0.0000 0.3387
vn 0.9178 0.0000 0.3971
vn 0.8910 0.0000 0.4540
vn 0.8607 0.0000 0.5090
vn 0.8271 0.0000 0.5621
vn 0.7902 0.0000 0.6129
vn 0.7501 0.0000 0.6613
vn 0.7071 0.0000 0.7071
vn 0.6613 0.0000 0.7501
vn 0.6129 0.0000 0.7902
vn 0.5621 0.0000 0.8271
vn 0.5090 0.0000 0.8607
vn 0.4540 0.0000 0.8910
vn 0.3971 0.0000 0.9178
vn 0.3387 0.0000 0.9409
vn 0.2790 0.0000 0.9603
vn 0.2181 0.0000 0.9759
vn 0.1564 0.0000 0.9877
vn 0.0941 0.0000 0.9956
vn 0.0314 0.0000 0.9995
vn -0.0314 0.0000 0.9995
vn -0.0941 0.0000 0.9956
vn -0.1564 0.0000 0.9877
vn -0.2181 0.0000 0.9759
vn -0.2790 0.0000 0.9603
vn -0.3387 0.0000 0.9409
vn -0.3971 0.0000 0.9178
vn -0.4540 0.0000 0.8910
vn -0.5090 0.0000 0.8607
vn -0.5621 0.0000 0.8271
vn -0.6129 0.0000 0.7902
vn -0.6613 0.0000 0.7501
vn -0.7071 0.0000 0.7071
vn -0.7501 0.0000 0.6613
vn -0.7902 0.0000 0.6129
vn -0.8271 0.0000 0.5621
vn -0.8607 0.0000 0.5090
vn -0.8910 0.0000 0.4540
vn -0.9178 0.0000 0.3971
vn -0.9409 0.0000 0.3387
vn -0.9603 0.0000 0.2790
vn -0.9759 0.0000 0.2181
vn -0.9877 0.0000 0.1564
vn -0.9956 0.0000 0.0941
vn -0.9995 0.0000 0.0314
vn -0.9995 0.0000 -0.0314
vn -0.9956 0.0000 -0.0941
vn -0.9877 0.0000 -0.1564
vn -0.9759 0.0000 -0.2181
vn -0.9603 0.0000 -0.2790
vn -0.9409 0.0000 -0.3387
vn -0.9178 0.0000 -0.3971
vn -0.8910 0.0000 -0.4540
vn -0.8607 0.0000 -0.5090
vn -0.8271 0.0000 -0.5621
vn -0.7902 0.0000 -0.6129
vn -0.7501 0.0000 -0.6613
vn -0.7071 0.0000 -0.7071
vn -0.6613 0.0000 -0.7501
vn -0.6129 0.0000 -0.7902
vn -0.5621 0.0000 -0.8271
vn -0.5090 0.0000 -0.8607
vn -0.4540 0.0000 -0.8910
vn -0.3971 0.0000 -0.9178
vn -0.3387 0.0000 -0.9409
vn -0.2790 0.0000 -0.9603
vn -0.2181 0.0000 -0.9759
vn -0.1564 0.0000 -0.9877
vn -0.0941 0.0000 -0.9956
vn -0.0314 0.0000 -0.9995
usemtl None
s off
f 1/1/1 2/2/1 4/3/1 3/4/1
f 3/4/2 4/3/2 6/5/2 5/6/2
f 5/6/3 6/5/3 8/7/3 7/8/3
f 7/8/4 8/7/4 10/9/4 9/10/4
f 9/10/5 10/9/5 12/11/5 11/12/5
f 11/12/6 12/11/6 14/13/6 13/14/6
f 13/14/7 14/13/7 16/15/7 15/16/7
f 15/16/8 16/15/8 18/17/8 17/18/8
f 17/18/9 18/17/9 20/19/9 19/20/9
f 19/20/10 20/19/10 22/21/10 21/22/10
f 21/22/11 22/21/11 24/23/11 23/24/11
f 23/24/12 24/23/12 26/25/12 25/26/12
f 25/26/13 26/25/13 28/27/13 27/28/13
f 27/28/14 28/27/14 30/29/14 29/30/14
f 29/30/15 30/29/15 32/31/15 31/32/15
f 31/32/16 32/31/16 34/33/16 33/34/16
f 33/34/17 34/33/17 36/35/17 35/36/17
f 35/36/18 36/35/18 38/37/18 37/38/18
f 37/38/19 38/37/19 40/39/19 39/40/19
f 39/40/20 40/39/20 42/41/20 41/42/20
f 41/42/21 42/41/21 44/43/21 43/44/21
f 43/44/22 44/43/22 46/45/22 45/46/22
f 45/46/23 46/45/23 48/47/23 47/48/23
f 47/48/24 48/47/24 50/49/24 49/50/24
f 49/50/25 50/49/25 52/51/25 51/52/25
f 51/52/26 52/51/26 54/53/26 53/54/26
f 53/54/27 54/53/27 56/55/27 55/56/27
f 55/56/28 56/55/28 58/57/28 57/58/28
f 57/58/29 58/57/29 60/59/29 59/60/29
f 59/60/30 60/59/30 62/61/30 61/62/30
f 61/62/31 62/61/31 64/63/31 63/64/31
f 63/64/32 64/63/32 66/65/32 65/66/32
f 65/66/33 66/65/33 68/67/33 67/68/33
f 67/68/34 68/67/34 70/69/34 69/70/34
f 69/70/35 70/69/35 72/71/35 71/72/35
f 71/72/36 72/71/36 74/73/36 73/74/36
f 73/74/37 74/73/37 76/75/37 75/76/37
f 75/76/38 76/75/38 78/77/38 77/78/38
f 77/78/39 78/77/39 80/79/39 79/80/39
f 79/80/40 80/79/40 82/81/40 81/82/40
f 81/82/41 82/81/41 84/83/41 83/84/41
f 83/84/42 84/83/42 86/85/42 85/86/42
f 85/86/43 86/85/43 88/87/43 87/88/43
f 87/88/44 88/87/44 90/89/44 89/90/44
f 89/90/45 90/89/45 92/91/45 91/92/45
f 91/92/46 92/91/46 94/93/46 93/94/46
f 93/94/47 94/93/47 96/95/47 95/96/47
f 95/96/48 96/95/48 98/97/48 97/98/48
f 97/98/49 98/97/49 100/99/49 99/100/49
f 99/100/50 100/99/50 102/101/50 101/102/50
f 101/102/51 102/101/51 104/103/51 103/104/51
f 103/104/52 104/103/52 106/105/52 105/106/52
f 105/106/53 106/105/53 108/107/53 107/108/53
f 107/108/54 108/107/54 110/109/54 109/110/54
f 109/110/55 110/109/55 112/111/55 111/112/55
f 111/112/56 112/111/56 114/113/56 113/114/56
f 113/114/57 114/113/57 116/115/57 115/116/57
f 115/116/58 116/115/58 118/117/58 117/118/58
f 117/118/59 118/117/59 120/119/59 119/120/59
f 119/120/60 120/119/60 122/121/60 121/122/60
f 121/122/61 122/121/61 124/123/61 123/124/61
f 123/124/62 124/123/62 126/125/62 125/126/62
f 125/126/63 126/125/63 128/127/63 127/128/63
f 127/128/64 128/127/64 130/129/64 129/130/64
f 129/130/65 130/129/65 132/131/65 131/132/65
f 131/132/66 132/131/66 134/133/66 133/134/66
f 133/134/67 134/133/67 136/135/67 135/136/67
f 135/136/68 136/135/68 138/137/68 137/138/68
f 137/138/69 138/137/69 140/139/69 139/140/69
f 139/140/70 140/139/70 142/141/70 141/142/70
f 141/142/71 142/141/71 144/143/71 143/144/71
f 143/144/72 144/143/72 146/145/72 145/146/72
f 145/146/73 146/145/73 148/147/73 147/148/73
f 147/148/74 148/147/74 150/149/74 149/150/74
f 149/150/75 150/149/75 152/151/75 151/152/75
f 151/152/76 152/151/76 154/153/76 153/154/76
f 153/154/77 154/153/77 156/155/77 155/156/77
f 155/156/78 156/155/78 158/157/78 157/158/78
f 157/158/79 158/157/79 160/159/79 159/160/79
f 159/160/80 160/159/80 162/161/80 161/162/80
f 161/162/81 162/161/81 164/163/81 163/164/81
f 163/164/82 164/163/82 166/165/82 165/166/82
f 165/166/83 166/165/83 168/167/83 167/168/83
f 167/168/84 168/167/84 170/169/84 169/170/84
f 169/170/85 170/169/85 172/171/85 171/172/85
f 171/172/86 172/171/86 174/173/86 173/174/86
f 173/174/87 174/173/87 176/175/87 175/176/87
f 175/176/88 176/175/88 178/177/88 177/178/88
f 177/178/89 178/177/89 180/179/89 179/180/89
f 179/180/90 180/179/90 182/181/90 181/182/90
f 181/182/91 182/181/91 184/183/91 183/184/91
f 183/184/92 184/183/92 186/185/92 185/186/92
f 185/186/93 186/185/93 188/187/93 187/188/93
f 187/188/94 188/187/94 190/189/94 189/190/94
f 189/190/95 190/189/95 192/191/95 191/192/95
f 191/192/96 192/191/96 194/193/96 193/194/96
f 193/194/97 194/193/97 196/195/97 195/196/97
f 195/196/98 196/195/98 198/197/98 197/198/98
f 197/198/99 198/197/99 200/199/99 199/200/99
f 199/200/100 200/199/100 2/201/100 1/202/100
